<svg width="41" height="41" viewBox="0 0 41 41" fill="none" xmlns="http://www.w3.org/2000/svg">
<g clip-path="url(#clip0_377233_6)">
<path d="M20.5 0C15.0643 0 9.84641 2.16115 6.00586 6.00426C2.16135 9.84889 0.00106494 15.063 0 20.5C0 25.9347 2.16211 31.1526 6.00586 34.9957C9.84641 38.8389 15.0643 41 20.5 41C25.9357 41 31.1536 38.8389 34.9941 34.9957C38.8379 31.1526 41 25.9347 41 20.5C41 15.0653 38.8379 9.84737 34.9941 6.00426C31.1536 2.16115 25.9357 0 20.5 0Z" fill="url(#paint0_linear_377233_6)"/>
<path d="M9.27944 20.2836C15.2565 17.6801 19.2412 15.9635 21.2335 15.1342C26.9287 12.7662 28.1106 12.3549 28.8826 12.3409C29.0523 12.3382 29.4303 12.3802 29.6769 12.5796C29.8819 12.7477 29.9396 12.9752 29.9684 13.1348C29.994 13.2944 30.0293 13.6579 30.0005 13.9417C29.693 17.1833 28.3573 25.0495 27.6782 28.6802C27.3931 30.2165 26.8262 30.7315 26.2784 30.7818C25.0869 30.8914 24.1836 29.9951 23.0305 29.2395C21.2271 28.0566 20.2085 27.3205 18.4564 26.1664C16.432 24.8326 17.7453 24.0995 18.8984 22.9015C19.1995 22.5879 24.4462 17.8168 24.5455 17.3841C24.5583 17.33 24.5712 17.1282 24.4494 17.0218C24.3309 16.9152 24.1548 16.9517 24.0266 16.9805C23.8441 17.0215 20.9644 18.9267 15.3782 22.6958C14.5614 23.2577 13.8215 23.5315 13.1552 23.5171C12.4249 23.5014 11.0155 23.1033 9.96811 22.7631C8.68686 22.3457 7.66507 22.125 7.75475 21.4162C7.7996 21.0472 8.30889 20.6695 9.27944 20.2836Z" fill="white"/>
</g>
<defs>
<linearGradient id="paint0_linear_377233_6" x1="2050" y1="0" x2="2050" y2="4100" gradientUnits="userSpaceOnUse">
<stop stop-color="#2AABEE"/>
<stop offset="1" stop-color="#229ED9"/>
</linearGradient>
<clipPath id="clip0_377233_6">
<rect width="41" height="41" fill="white"/>
</clipPath>
</defs>
</svg>
